<?xml version="1.0" encoding="UTF-8" standalone="no"?>
<!DOCTYPE svg PUBLIC "-//W3C//DTD SVG 1.1//EN"
 "http://www.w3.org/Graphics/SVG/1.1/DTD/svg11.dtd">
<!-- Generated by graphviz version 2.43.0 (0)
 -->
<!-- Title: %3 Pages: 1 -->
<svg width="1668pt" height="548pt"
 viewBox="0.00 0.00 1668.38 548.00" xmlns="http://www.w3.org/2000/svg" xmlns:xlink="http://www.w3.org/1999/xlink">
<g id="graph0" class="graph" transform="scale(1 1) rotate(0) translate(4 544)">
<title>%3</title>
<polygon fill="white" stroke="transparent" points="-4,4 -4,-544 1664.38,-544 1664.38,4 -4,4"/>
<!-- [root] module.aws_nginx.aws_instance.main -->
<g id="node1" class="node">
<title>[root] module.aws_nginx.aws_instance.main</title>
<polygon fill="none" stroke="black" points="547.01,-180 315.43,-180 315.43,-144 547.01,-144 547.01,-180"/>
<text text-anchor="middle" x="431.22" y="-157.8" font-family="Times,serif" font-size="14.00">module.aws_nginx.aws_instance.main</text>
</g>
<!-- [root] module.aws_nginx.aws_security_group.main -->
<g id="node2" class="node">
<title>[root] module.aws_nginx.aws_security_group.main</title>
<polygon fill="none" stroke="black" points="498.12,-108 228.32,-108 228.32,-72 498.12,-72 498.12,-108"/>
<text text-anchor="middle" x="363.22" y="-85.8" font-family="Times,serif" font-size="14.00">module.aws_nginx.aws_security_group.main</text>
</g>
<!-- [root] module.aws_nginx.aws_instance.main&#45;&gt;[root] module.aws_nginx.aws_security_group.main -->
<g id="edge5" class="edge">
<title>[root] module.aws_nginx.aws_instance.main&#45;&gt;[root] module.aws_nginx.aws_security_group.main</title>
<path fill="none" stroke="black" d="M414.41,-143.7C406.1,-135.14 395.92,-124.66 386.83,-115.3"/>
<polygon fill="black" stroke="black" points="389.32,-112.84 379.84,-108.1 384.29,-117.72 389.32,-112.84"/>
</g>
<!-- [root] module.aws_nginx.data.aws_ami.ubuntu -->
<g id="node3" class="node">
<title>[root] module.aws_nginx.data.aws_ami.ubuntu</title>
<polygon fill="none" stroke="black" points="760.35,-108 516.09,-108 516.09,-72 760.35,-72 760.35,-108"/>
<text text-anchor="middle" x="638.22" y="-85.8" font-family="Times,serif" font-size="14.00">module.aws_nginx.data.aws_ami.ubuntu</text>
</g>
<!-- [root] module.aws_nginx.aws_instance.main&#45;&gt;[root] module.aws_nginx.data.aws_ami.ubuntu -->
<g id="edge6" class="edge">
<title>[root] module.aws_nginx.aws_instance.main&#45;&gt;[root] module.aws_nginx.data.aws_ami.ubuntu</title>
<path fill="none" stroke="black" d="M481.59,-143.97C510.64,-134.14 547.35,-121.73 577.93,-111.39"/>
<polygon fill="black" stroke="black" points="579.27,-114.63 587.62,-108.11 577.03,-108 579.27,-114.63"/>
</g>
<!-- [root] module.aws_nginx.var.name -->
<g id="node5" class="node">
<title>[root] module.aws_nginx.var.name</title>
<polygon fill="none" stroke="black" points="445.3,-36 275.14,-36 275.14,0 451.3,0 451.3,-30 445.3,-36"/>
<polyline fill="none" stroke="black" points="445.3,-36 445.3,-30 "/>
<polyline fill="none" stroke="black" points="451.3,-30 445.3,-30 "/>
<text text-anchor="middle" x="363.22" y="-13.8" font-family="Times,serif" font-size="14.00">module.aws_nginx.var.name</text>
</g>
<!-- [root] module.aws_nginx.aws_security_group.main&#45;&gt;[root] module.aws_nginx.var.name -->
<g id="edge7" class="edge">
<title>[root] module.aws_nginx.aws_security_group.main&#45;&gt;[root] module.aws_nginx.var.name</title>
<path fill="none" stroke="black" d="M363.22,-71.7C363.22,-63.98 363.22,-54.71 363.22,-46.11"/>
<polygon fill="black" stroke="black" points="366.72,-46.1 363.22,-36.1 359.72,-46.1 366.72,-46.1"/>
</g>
<!-- [root] provider.aws -->
<g id="node17" class="node">
<title>[root] provider.aws</title>
<polygon fill="none" stroke="black" points="593.22,-36 514.61,-18 593.22,0 671.83,-18 593.22,-36"/>
<text text-anchor="middle" x="593.22" y="-13.8" font-family="Times,serif" font-size="14.00">provider.aws</text>
</g>
<!-- [root] module.aws_nginx.aws_security_group.main&#45;&gt;[root] provider.aws -->
<g id="edge8" class="edge">
<title>[root] module.aws_nginx.aws_security_group.main&#45;&gt;[root] provider.aws</title>
<path fill="none" stroke="black" d="M419.19,-71.97C459.91,-59.57 514.17,-43.06 551.21,-31.79"/>
<polygon fill="black" stroke="black" points="552.63,-35.01 561.18,-28.75 550.59,-28.32 552.63,-35.01"/>
</g>
<!-- [root] module.aws_nginx.data.aws_ami.ubuntu&#45;&gt;[root] provider.aws -->
<g id="edge9" class="edge">
<title>[root] module.aws_nginx.data.aws_ami.ubuntu&#45;&gt;[root] provider.aws</title>
<path fill="none" stroke="black" d="M627.1,-71.7C621.5,-62.98 614.62,-52.28 608.53,-42.81"/>
<polygon fill="black" stroke="black" points="611.35,-40.72 602.99,-34.2 605.46,-44.51 611.35,-40.72"/>
</g>
<!-- [root] module.aws_nginx.output.public_ip -->
<g id="node4" class="node">
<title>[root] module.aws_nginx.output.public_ip</title>
<polygon fill="none" stroke="black" points="860.04,-252 648.4,-252 648.4,-216 866.04,-216 866.04,-246 860.04,-252"/>
<polyline fill="none" stroke="black" points="860.04,-252 860.04,-246 "/>
<polyline fill="none" stroke="black" points="866.04,-246 860.04,-246 "/>
<text text-anchor="middle" x="757.22" y="-229.8" font-family="Times,serif" font-size="14.00">module.aws_nginx.output.public_ip</text>
</g>
<!-- [root] module.aws_nginx.output.public_ip&#45;&gt;[root] module.aws_nginx.aws_instance.main -->
<g id="edge10" class="edge">
<title>[root] module.aws_nginx.output.public_ip&#45;&gt;[root] module.aws_nginx.aws_instance.main</title>
<path fill="none" stroke="black" d="M677.89,-215.97C630.37,-205.76 569.84,-192.76 520.63,-182.2"/>
<polygon fill="black" stroke="black" points="521.14,-178.73 510.63,-180.05 519.67,-185.57 521.14,-178.73"/>
</g>
<!-- [root] module.dns.cloudflare_record.main -->
<g id="node6" class="node">
<title>[root] module.dns.cloudflare_record.main</title>
<polygon fill="none" stroke="black" points="568.39,-396 354.06,-396 354.06,-360 568.39,-360 568.39,-396"/>
<text text-anchor="middle" x="461.22" y="-373.8" font-family="Times,serif" font-size="14.00">module.dns.cloudflare_record.main</text>
</g>
<!-- [root] module.dns.local.cf_zone_id -->
<g id="node7" class="node">
<title>[root] module.dns.local.cf_zone_id</title>
<polygon fill="none" stroke="black" points="188.06,-324 16.38,-324 16.38,-288 194.06,-288 194.06,-318 188.06,-324"/>
<polyline fill="none" stroke="black" points="188.06,-324 188.06,-318 "/>
<polyline fill="none" stroke="black" points="194.06,-318 188.06,-318 "/>
<text text-anchor="middle" x="105.22" y="-301.8" font-family="Times,serif" font-size="14.00">module.dns.local.cf_zone_id</text>
</g>
<!-- [root] module.dns.cloudflare_record.main&#45;&gt;[root] module.dns.local.cf_zone_id -->
<g id="edge11" class="edge">
<title>[root] module.dns.cloudflare_record.main&#45;&gt;[root] module.dns.local.cf_zone_id</title>
<path fill="none" stroke="black" d="M374.59,-359.97C322.37,-349.7 255.76,-336.6 201.85,-326"/>
<polygon fill="black" stroke="black" points="202.42,-322.55 191.93,-324.05 201.07,-329.41 202.42,-322.55"/>
</g>
<!-- [root] module.dns.local.domain -->
<g id="node8" class="node">
<title>[root] module.dns.local.domain</title>
<polygon fill="none" stroke="black" points="362.86,-324 211.58,-324 211.58,-288 368.86,-288 368.86,-318 362.86,-324"/>
<polyline fill="none" stroke="black" points="362.86,-324 362.86,-318 "/>
<polyline fill="none" stroke="black" points="368.86,-318 362.86,-318 "/>
<text text-anchor="middle" x="290.22" y="-301.8" font-family="Times,serif" font-size="14.00">module.dns.local.domain</text>
</g>
<!-- [root] module.dns.cloudflare_record.main&#45;&gt;[root] module.dns.local.domain -->
<g id="edge12" class="edge">
<title>[root] module.dns.cloudflare_record.main&#45;&gt;[root] module.dns.local.domain</title>
<path fill="none" stroke="black" d="M419.39,-359.88C395.81,-350.22 366.16,-338.09 341.22,-327.88"/>
<polygon fill="black" stroke="black" points="342.5,-324.62 331.92,-324.07 339.85,-331.1 342.5,-324.62"/>
</g>
<!-- [root] module.dns.var.ips -->
<g id="node9" class="node">
<title>[root] module.dns.var.ips</title>
<polygon fill="none" stroke="black" points="930.11,-324 814.33,-324 814.33,-288 936.11,-288 936.11,-318 930.11,-324"/>
<polyline fill="none" stroke="black" points="930.11,-324 930.11,-318 "/>
<polyline fill="none" stroke="black" points="936.11,-318 930.11,-318 "/>
<text text-anchor="middle" x="875.22" y="-301.8" font-family="Times,serif" font-size="14.00">module.dns.var.ips</text>
</g>
<!-- [root] module.dns.cloudflare_record.main&#45;&gt;[root] module.dns.var.ips -->
<g id="edge13" class="edge">
<title>[root] module.dns.cloudflare_record.main&#45;&gt;[root] module.dns.var.ips</title>
<path fill="none" stroke="black" d="M561.97,-359.97C636.98,-347.28 737.54,-330.28 804.26,-319"/>
<polygon fill="black" stroke="black" points="804.98,-322.43 814.25,-317.31 803.81,-315.52 804.98,-322.43"/>
</g>
<!-- [root] module.dns.var.name -->
<g id="node10" class="node">
<title>[root] module.dns.var.name</title>
<polygon fill="none" stroke="black" points="516.09,-324 386.35,-324 386.35,-288 522.09,-288 522.09,-318 516.09,-324"/>
<polyline fill="none" stroke="black" points="516.09,-324 516.09,-318 "/>
<polyline fill="none" stroke="black" points="522.09,-318 516.09,-318 "/>
<text text-anchor="middle" x="454.22" y="-301.8" font-family="Times,serif" font-size="14.00">module.dns.var.name</text>
</g>
<!-- [root] module.dns.cloudflare_record.main&#45;&gt;[root] module.dns.var.name -->
<g id="edge14" class="edge">
<title>[root] module.dns.cloudflare_record.main&#45;&gt;[root] module.dns.var.name</title>
<path fill="none" stroke="black" d="M459.49,-359.7C458.72,-351.98 457.79,-342.71 456.93,-334.11"/>
<polygon fill="black" stroke="black" points="460.41,-333.71 455.93,-324.1 453.44,-334.4 460.41,-333.71"/>
</g>
<!-- [root] provider.cloudflare -->
<g id="node18" class="node">
<title>[root] provider.cloudflare</title>
<polygon fill="none" stroke="black" points="649.22,-324 540,-306 649.22,-288 758.45,-306 649.22,-324"/>
<text text-anchor="middle" x="649.22" y="-301.8" font-family="Times,serif" font-size="14.00">provider.cloudflare</text>
</g>
<!-- [root] module.dns.cloudflare_record.main&#45;&gt;[root] provider.cloudflare -->
<g id="edge15" class="edge">
<title>[root] module.dns.cloudflare_record.main&#45;&gt;[root] provider.cloudflare</title>
<path fill="none" stroke="black" d="M507.21,-359.88C537.98,-348.42 578.12,-333.47 607.87,-322.4"/>
<polygon fill="black" stroke="black" points="609.39,-325.57 617.54,-318.8 606.94,-319.01 609.39,-325.57"/>
</g>
<!-- [root] module.dns.var.ips&#45;&gt;[root] module.aws_nginx.output.public_ip -->
<g id="edge16" class="edge">
<title>[root] module.dns.var.ips&#45;&gt;[root] module.aws_nginx.output.public_ip</title>
<path fill="none" stroke="black" d="M846.36,-287.88C830.93,-278.72 811.74,-267.34 795.12,-257.48"/>
<polygon fill="black" stroke="black" points="796.58,-254.28 786.2,-252.19 793.01,-260.3 796.58,-254.28"/>
</g>
<!-- [root] module.gcp_nginx.output.public_ip -->
<g id="node13" class="node">
<title>[root] module.gcp_nginx.output.public_ip</title>
<polygon fill="none" stroke="black" points="1094.48,-252 883.96,-252 883.96,-216 1100.48,-216 1100.48,-246 1094.48,-252"/>
<polyline fill="none" stroke="black" points="1094.48,-252 1094.48,-246 "/>
<polyline fill="none" stroke="black" points="1100.48,-246 1094.48,-246 "/>
<text text-anchor="middle" x="992.22" y="-229.8" font-family="Times,serif" font-size="14.00">module.gcp_nginx.output.public_ip</text>
</g>
<!-- [root] module.dns.var.ips&#45;&gt;[root] module.gcp_nginx.output.public_ip -->
<g id="edge17" class="edge">
<title>[root] module.dns.var.ips&#45;&gt;[root] module.gcp_nginx.output.public_ip</title>
<path fill="none" stroke="black" d="M903.84,-287.88C919.14,-278.72 938.16,-267.34 954.64,-257.48"/>
<polygon fill="black" stroke="black" points="956.71,-260.33 963.49,-252.19 953.11,-254.32 956.71,-260.33"/>
</g>
<!-- [root] module.gcp_nginx.google_compute_firewall.http -->
<g id="node11" class="node">
<title>[root] module.gcp_nginx.google_compute_firewall.http</title>
<polygon fill="none" stroke="black" points="1274.67,-396 981.77,-396 981.77,-360 1274.67,-360 1274.67,-396"/>
<text text-anchor="middle" x="1128.22" y="-373.8" font-family="Times,serif" font-size="14.00">module.gcp_nginx.google_compute_firewall.http</text>
</g>
<!-- [root] provider.google -->
<g id="node19" class="node">
<title>[root] provider.google</title>
<polygon fill="none" stroke="black" points="1119.22,-108 1025.94,-90 1119.22,-72 1212.51,-90 1119.22,-108"/>
<text text-anchor="middle" x="1119.22" y="-85.8" font-family="Times,serif" font-size="14.00">provider.google</text>
</g>
<!-- [root] module.gcp_nginx.google_compute_firewall.http&#45;&gt;[root] provider.google -->
<g id="edge18" class="edge">
<title>[root] module.gcp_nginx.google_compute_firewall.http&#45;&gt;[root] provider.google</title>
<path fill="none" stroke="black" d="M1127.69,-359.97C1126.18,-312.18 1121.91,-176.54 1120.08,-118.22"/>
<polygon fill="black" stroke="black" points="1123.57,-117.83 1119.75,-107.94 1116.57,-118.05 1123.57,-117.83"/>
</g>
<!-- [root] module.gcp_nginx.google_compute_instance.main -->
<g id="node12" class="node">
<title>[root] module.gcp_nginx.google_compute_instance.main</title>
<polygon fill="none" stroke="black" points="1459.99,-180 1158.45,-180 1158.45,-144 1459.99,-144 1459.99,-180"/>
<text text-anchor="middle" x="1309.22" y="-157.8" font-family="Times,serif" font-size="14.00">module.gcp_nginx.google_compute_instance.main</text>
</g>
<!-- [root] module.gcp_nginx.var.name -->
<g id="node14" class="node">
<title>[root] module.gcp_nginx.var.name</title>
<polygon fill="none" stroke="black" points="1399.75,-108 1230.7,-108 1230.7,-72 1405.75,-72 1405.75,-102 1399.75,-108"/>
<polyline fill="none" stroke="black" points="1399.75,-108 1399.75,-102 "/>
<polyline fill="none" stroke="black" points="1405.75,-102 1399.75,-102 "/>
<text text-anchor="middle" x="1318.22" y="-85.8" font-family="Times,serif" font-size="14.00">module.gcp_nginx.var.name</text>
</g>
<!-- [root] module.gcp_nginx.google_compute_instance.main&#45;&gt;[root] module.gcp_nginx.var.name -->
<g id="edge19" class="edge">
<title>[root] module.gcp_nginx.google_compute_instance.main&#45;&gt;[root] module.gcp_nginx.var.name</title>
<path fill="none" stroke="black" d="M1311.45,-143.7C1312.44,-135.98 1313.63,-126.71 1314.74,-118.11"/>
<polygon fill="black" stroke="black" points="1318.22,-118.47 1316.02,-108.1 1311.28,-117.58 1318.22,-118.47"/>
</g>
<!-- [root] module.gcp_nginx.google_compute_instance.main&#45;&gt;[root] provider.google -->
<g id="edge20" class="edge">
<title>[root] module.gcp_nginx.google_compute_instance.main&#45;&gt;[root] provider.google</title>
<path fill="none" stroke="black" d="M1262.74,-143.88C1230.92,-132.15 1189.17,-116.77 1158.91,-105.62"/>
<polygon fill="black" stroke="black" points="1160.11,-102.33 1149.52,-102.16 1157.69,-108.9 1160.11,-102.33"/>
</g>
<!-- [root] provisioner.remote&#45;exec -->
<g id="node23" class="node">
<title>[root] provisioner.remote&#45;exec</title>
<ellipse fill="none" stroke="black" cx="1542.22" cy="-90" rx="118.31" ry="18"/>
<text text-anchor="middle" x="1542.22" y="-85.8" font-family="Times,serif" font-size="14.00">[root] provisioner.remote&#45;exec</text>
</g>
<!-- [root] module.gcp_nginx.google_compute_instance.main&#45;&gt;[root] provisioner.remote&#45;exec -->
<g id="edge21" class="edge">
<title>[root] module.gcp_nginx.google_compute_instance.main&#45;&gt;[root] provisioner.remote&#45;exec</title>
<path fill="none" stroke="black" d="M1365.92,-143.97C1400.89,-133.46 1445.72,-119.99 1481.42,-109.27"/>
<polygon fill="black" stroke="black" points="1482.66,-112.55 1491.23,-106.32 1480.65,-105.84 1482.66,-112.55"/>
</g>
<!-- [root] module.gcp_nginx.output.public_ip&#45;&gt;[root] module.gcp_nginx.google_compute_instance.main -->
<g id="edge22" class="edge">
<title>[root] module.gcp_nginx.output.public_ip&#45;&gt;[root] module.gcp_nginx.google_compute_instance.main</title>
<path fill="none" stroke="black" d="M1069.36,-215.97C1115.47,-205.78 1174.19,-192.82 1221.98,-182.26"/>
<polygon fill="black" stroke="black" points="1223,-185.62 1232.01,-180.05 1221.49,-178.79 1223,-185.62"/>
</g>
<!-- [root] output.aws_vm_ip -->
<g id="node15" class="node">
<title>[root] output.aws_vm_ip</title>
<polygon fill="none" stroke="black" points="822.05,-396 708.39,-396 708.39,-360 828.05,-360 828.05,-390 822.05,-396"/>
<polyline fill="none" stroke="black" points="822.05,-396 822.05,-390 "/>
<polyline fill="none" stroke="black" points="828.05,-390 822.05,-390 "/>
<text text-anchor="middle" x="768.22" y="-373.8" font-family="Times,serif" font-size="14.00">output.aws_vm_ip</text>
</g>
<!-- [root] output.aws_vm_ip&#45;&gt;[root] module.aws_nginx.output.public_ip -->
<g id="edge23" class="edge">
<title>[root] output.aws_vm_ip&#45;&gt;[root] module.aws_nginx.output.public_ip</title>
<path fill="none" stroke="black" d="M768.92,-359.89C769.44,-341.93 769.69,-312.91 767.22,-288 766.38,-279.48 764.86,-270.29 763.26,-261.99"/>
<polygon fill="black" stroke="black" points="766.66,-261.17 761.23,-252.08 759.81,-262.57 766.66,-261.17"/>
</g>
<!-- [root] output.gcp_vm_ip -->
<g id="node16" class="node">
<title>[root] output.gcp_vm_ip</title>
<polygon fill="none" stroke="black" points="958.49,-396 845.95,-396 845.95,-360 964.49,-360 964.49,-390 958.49,-396"/>
<polyline fill="none" stroke="black" points="958.49,-396 958.49,-390 "/>
<polyline fill="none" stroke="black" points="964.49,-390 958.49,-390 "/>
<text text-anchor="middle" x="905.22" y="-373.8" font-family="Times,serif" font-size="14.00">output.gcp_vm_ip</text>
</g>
<!-- [root] output.gcp_vm_ip&#45;&gt;[root] module.gcp_nginx.output.public_ip -->
<g id="edge24" class="edge">
<title>[root] output.gcp_vm_ip&#45;&gt;[root] module.gcp_nginx.output.public_ip</title>
<path fill="none" stroke="black" d="M919.29,-359.84C927.31,-349.7 937.31,-336.45 945.22,-324 958.11,-303.72 970.72,-279.54 979.62,-261.51"/>
<polygon fill="black" stroke="black" points="982.93,-262.71 984.17,-252.19 976.64,-259.64 982.93,-262.71"/>
</g>
<!-- [root] var.cf_api_token -->
<g id="node20" class="node">
<title>[root] var.cf_api_token</title>
<polygon fill="none" stroke="black" points="623.92,-252 520.53,-252 520.53,-216 629.92,-216 629.92,-246 623.92,-252"/>
<polyline fill="none" stroke="black" points="623.92,-252 623.92,-246 "/>
<polyline fill="none" stroke="black" points="629.92,-246 623.92,-246 "/>
<text text-anchor="middle" x="575.22" y="-229.8" font-family="Times,serif" font-size="14.00">var.cf_api_token</text>
</g>
<!-- [root] provider.cloudflare&#45;&gt;[root] var.cf_api_token -->
<g id="edge27" class="edge">
<title>[root] provider.cloudflare&#45;&gt;[root] var.cf_api_token</title>
<path fill="none" stroke="black" d="M633.89,-290.5C624.33,-281.45 611.78,-269.59 600.75,-259.15"/>
<polygon fill="black" stroke="black" points="603.08,-256.53 593.41,-252.2 598.27,-261.62 603.08,-256.53"/>
</g>
<!-- [root] var.gcp_project_id -->
<g id="node21" class="node">
<title>[root] var.gcp_project_id</title>
<polygon fill="none" stroke="black" points="1173.31,-36 1059.14,-36 1059.14,0 1179.31,0 1179.31,-30 1173.31,-36"/>
<polyline fill="none" stroke="black" points="1173.31,-36 1173.31,-30 "/>
<polyline fill="none" stroke="black" points="1179.31,-30 1173.31,-30 "/>
<text text-anchor="middle" x="1119.22" y="-13.8" font-family="Times,serif" font-size="14.00">var.gcp_project_id</text>
</g>
<!-- [root] provider.google&#45;&gt;[root] var.gcp_project_id -->
<g id="edge30" class="edge">
<title>[root] provider.google&#45;&gt;[root] var.gcp_project_id</title>
<path fill="none" stroke="black" d="M1119.22,-71.7C1119.22,-63.98 1119.22,-54.71 1119.22,-46.11"/>
<polygon fill="black" stroke="black" points="1122.72,-46.1 1119.22,-36.1 1115.72,-46.1 1122.72,-46.1"/>
</g>
<!-- [root] meta.count&#45;boundary (EachMode fixup) -->
<g id="node22" class="node">
<title>[root] meta.count&#45;boundary (EachMode fixup)</title>
<ellipse fill="none" stroke="black" cx="779.22" cy="-450" rx="174.79" ry="18"/>
<text text-anchor="middle" x="779.22" y="-445.8" font-family="Times,serif" font-size="14.00">[root] meta.count&#45;boundary (EachMode fixup)</text>
</g>
<!-- [root] meta.count&#45;boundary (EachMode fixup)&#45;&gt;[root] module.dns.cloudflare_record.main -->
<g id="edge1" class="edge">
<title>[root] meta.count&#45;boundary (EachMode fixup)&#45;&gt;[root] module.dns.cloudflare_record.main</title>
<path fill="none" stroke="black" d="M708.65,-433.46C661.39,-423.06 598.84,-409.29 548.46,-398.2"/>
<polygon fill="black" stroke="black" points="549.08,-394.76 538.56,-396.02 547.57,-401.59 549.08,-394.76"/>
</g>
<!-- [root] meta.count&#45;boundary (EachMode fixup)&#45;&gt;[root] module.gcp_nginx.google_compute_firewall.http -->
<g id="edge2" class="edge">
<title>[root] meta.count&#45;boundary (EachMode fixup)&#45;&gt;[root] module.gcp_nginx.google_compute_firewall.http</title>
<path fill="none" stroke="black" d="M855.38,-433.72C907.69,-423.23 977.52,-409.23 1033.44,-398.01"/>
<polygon fill="black" stroke="black" points="1034.23,-401.42 1043.35,-396.02 1032.86,-394.56 1034.23,-401.42"/>
</g>
<!-- [root] meta.count&#45;boundary (EachMode fixup)&#45;&gt;[root] output.aws_vm_ip -->
<g id="edge3" class="edge">
<title>[root] meta.count&#45;boundary (EachMode fixup)&#45;&gt;[root] output.aws_vm_ip</title>
<path fill="none" stroke="black" d="M776.5,-431.7C775.29,-423.98 773.83,-414.71 772.48,-406.11"/>
<polygon fill="black" stroke="black" points="775.92,-405.44 770.91,-396.1 769,-406.53 775.92,-405.44"/>
</g>
<!-- [root] meta.count&#45;boundary (EachMode fixup)&#45;&gt;[root] output.gcp_vm_ip -->
<g id="edge4" class="edge">
<title>[root] meta.count&#45;boundary (EachMode fixup)&#45;&gt;[root] output.gcp_vm_ip</title>
<path fill="none" stroke="black" d="M809.4,-432.23C826.14,-422.93 847.17,-411.25 865.26,-401.2"/>
<polygon fill="black" stroke="black" points="867.37,-404.03 874.41,-396.12 863.97,-397.91 867.37,-404.03"/>
</g>
<!-- [root] provider.aws (close) -->
<g id="node24" class="node">
<title>[root] provider.aws (close)</title>
<ellipse fill="none" stroke="black" cx="191.22" cy="-234" rx="104.33" ry="18"/>
<text text-anchor="middle" x="191.22" y="-229.8" font-family="Times,serif" font-size="14.00">[root] provider.aws (close)</text>
</g>
<!-- [root] provider.aws (close)&#45;&gt;[root] module.aws_nginx.aws_instance.main -->
<g id="edge25" class="edge">
<title>[root] provider.aws (close)&#45;&gt;[root] module.aws_nginx.aws_instance.main</title>
<path fill="none" stroke="black" d="M241.83,-218.24C277.07,-207.96 324.49,-194.13 363.06,-182.88"/>
<polygon fill="black" stroke="black" points="364.04,-186.24 372.66,-180.08 362.08,-179.52 364.04,-186.24"/>
</g>
<!-- [root] provider.cloudflare (close) -->
<g id="node25" class="node">
<title>[root] provider.cloudflare (close)</title>
<ellipse fill="none" stroke="black" cx="461.22" cy="-450" rx="125.54" ry="18"/>
<text text-anchor="middle" x="461.22" y="-445.8" font-family="Times,serif" font-size="14.00">[root] provider.cloudflare (close)</text>
</g>
<!-- [root] provider.cloudflare (close)&#45;&gt;[root] module.dns.cloudflare_record.main -->
<g id="edge26" class="edge">
<title>[root] provider.cloudflare (close)&#45;&gt;[root] module.dns.cloudflare_record.main</title>
<path fill="none" stroke="black" d="M461.22,-431.7C461.22,-423.98 461.22,-414.71 461.22,-406.11"/>
<polygon fill="black" stroke="black" points="464.72,-406.1 461.22,-396.1 457.72,-406.1 464.72,-406.1"/>
</g>
<!-- [root] provider.google (close) -->
<g id="node26" class="node">
<title>[root] provider.google (close)</title>
<ellipse fill="none" stroke="black" cx="1086.22" cy="-450" rx="114.46" ry="18"/>
<text text-anchor="middle" x="1086.22" y="-445.8" font-family="Times,serif" font-size="14.00">[root] provider.google (close)</text>
</g>
<!-- [root] provider.google (close)&#45;&gt;[root] module.gcp_nginx.google_compute_firewall.http -->
<g id="edge28" class="edge">
<title>[root] provider.google (close)&#45;&gt;[root] module.gcp_nginx.google_compute_firewall.http</title>
<path fill="none" stroke="black" d="M1096.39,-432.05C1101.27,-423.92 1107.22,-414 1112.66,-404.94"/>
<polygon fill="black" stroke="black" points="1115.71,-406.65 1117.86,-396.28 1109.71,-403.05 1115.71,-406.65"/>
</g>
<!-- [root] provider.google (close)&#45;&gt;[root] module.gcp_nginx.google_compute_instance.main -->
<g id="edge29" class="edge">
<title>[root] provider.google (close)&#45;&gt;[root] module.gcp_nginx.google_compute_instance.main</title>
<path fill="none" stroke="black" d="M1165.42,-436.98C1213.11,-428.04 1267.56,-414.24 1283.22,-396 1309.26,-365.68 1310.65,-244.73 1309.88,-190.07"/>
<polygon fill="black" stroke="black" points="1313.38,-190.01 1309.71,-180.07 1306.38,-190.13 1313.38,-190.01"/>
</g>
<!-- [root] provisioner.remote&#45;exec (close) -->
<g id="node27" class="node">
<title>[root] provisioner.remote&#45;exec (close)</title>
<ellipse fill="none" stroke="black" cx="1363.22" cy="-450" rx="144.35" ry="18"/>
<text text-anchor="middle" x="1363.22" y="-445.8" font-family="Times,serif" font-size="14.00">[root] provisioner.remote&#45;exec (close)</text>
</g>
<!-- [root] provisioner.remote&#45;exec (close)&#45;&gt;[root] module.gcp_nginx.google_compute_instance.main -->
<g id="edge31" class="edge">
<title>[root] provisioner.remote&#45;exec (close)&#45;&gt;[root] module.gcp_nginx.google_compute_instance.main</title>
<path fill="none" stroke="black" d="M1360.17,-431.73C1353.3,-393.05 1336.01,-296.53 1320.22,-216 1318.57,-207.57 1316.69,-198.4 1314.97,-190.1"/>
<polygon fill="black" stroke="black" points="1318.36,-189.24 1312.88,-180.17 1311.51,-190.67 1318.36,-189.24"/>
</g>
<!-- [root] root -->
<g id="node28" class="node">
<title>[root] root</title>
<ellipse fill="none" stroke="black" cx="779.22" cy="-522" rx="46.9" ry="18"/>
<text text-anchor="middle" x="779.22" y="-517.8" font-family="Times,serif" font-size="14.00">[root] root</text>
</g>
<!-- [root] root&#45;&gt;[root] meta.count&#45;boundary (EachMode fixup) -->
<g id="edge32" class="edge">
<title>[root] root&#45;&gt;[root] meta.count&#45;boundary (EachMode fixup)</title>
<path fill="none" stroke="black" d="M779.22,-503.7C779.22,-495.98 779.22,-486.71 779.22,-478.11"/>
<polygon fill="black" stroke="black" points="782.72,-478.1 779.22,-468.1 775.72,-478.1 782.72,-478.1"/>
</g>
<!-- [root] root&#45;&gt;[root] provider.aws (close) -->
<g id="edge33" class="edge">
<title>[root] root&#45;&gt;[root] provider.aws (close)</title>
<path fill="none" stroke="black" d="M732.67,-520.24C649.57,-517.85 470.83,-508.06 326.22,-468 176.31,-426.47 91.61,-454.68 7.22,-324 -20.17,-281.59 39.72,-258.83 98.33,-246.98"/>
<polygon fill="black" stroke="black" points="99.31,-250.35 108.47,-245.03 97.99,-243.48 99.31,-250.35"/>
</g>
<!-- [root] root&#45;&gt;[root] provider.cloudflare (close) -->
<g id="edge34" class="edge">
<title>[root] root&#45;&gt;[root] provider.cloudflare (close)</title>
<path fill="none" stroke="black" d="M739.59,-512.28C689.02,-501.14 600.48,-481.65 536.82,-467.64"/>
<polygon fill="black" stroke="black" points="537.34,-464.17 526.82,-465.44 535.84,-471.01 537.34,-464.17"/>
</g>
<!-- [root] root&#45;&gt;[root] provider.google (close) -->
<g id="edge35" class="edge">
<title>[root] root&#45;&gt;[root] provider.google (close)</title>
<path fill="none" stroke="black" d="M818.42,-512.06C867.64,-500.84 953.06,-481.36 1014.2,-467.42"/>
<polygon fill="black" stroke="black" points="1015.2,-470.78 1024.17,-465.15 1013.64,-463.96 1015.2,-470.78"/>
</g>
<!-- [root] root&#45;&gt;[root] provisioner.remote&#45;exec (close) -->
<g id="edge36" class="edge">
<title>[root] root&#45;&gt;[root] provisioner.remote&#45;exec (close)</title>
<path fill="none" stroke="black" d="M823.12,-515.74C913.6,-504.89 1123.26,-479.76 1253.12,-464.2"/>
<polygon fill="black" stroke="black" points="1253.6,-467.67 1263.11,-463 1252.76,-460.71 1253.6,-467.67"/>
</g>
</g>
</svg>
